<mxfile host="app.diagrams.net" modified="2023-05-05T09:26:16.904Z" agent="Mozilla/5.0 (Macintosh; Intel Mac OS X 10_15_7) AppleWebKit/537.36 (KHTML, like Gecko) Chrome/112.0.0.0 Safari/537.36" etag="XWmEwyDENmN2qO0JkX4q" version="21.2.9" type="github">
  <diagram name="im2col" id="B2vj_qbLetMcZ4uXBBXc">
    <mxGraphModel dx="478" dy="257" grid="1" gridSize="10" guides="1" tooltips="1" connect="1" arrows="1" fold="1" page="1" pageScale="1" pageWidth="1169" pageHeight="827" math="0" shadow="0">
      <root>
        <mxCell id="0" />
        <mxCell id="1" parent="0" />
        <mxCell id="FIXJqrWHQegm_1WHsCda-85" value="" style="group" vertex="1" connectable="0" parent="1">
          <mxGeometry x="490" y="150" width="80" height="80" as="geometry" />
        </mxCell>
        <mxCell id="FIXJqrWHQegm_1WHsCda-67" value="33" style="whiteSpace=wrap;html=1;aspect=fixed;fillColor=#b0e3e6;strokeColor=#0e8088;" vertex="1" parent="FIXJqrWHQegm_1WHsCda-85">
          <mxGeometry width="20" height="20" as="geometry" />
        </mxCell>
        <mxCell id="FIXJqrWHQegm_1WHsCda-68" value="34" style="whiteSpace=wrap;html=1;aspect=fixed;fillColor=#b0e3e6;strokeColor=#0e8088;" vertex="1" parent="FIXJqrWHQegm_1WHsCda-85">
          <mxGeometry x="20" width="20" height="20" as="geometry" />
        </mxCell>
        <mxCell id="FIXJqrWHQegm_1WHsCda-69" value="35" style="whiteSpace=wrap;html=1;aspect=fixed;fillColor=#b0e3e6;strokeColor=#0e8088;" vertex="1" parent="FIXJqrWHQegm_1WHsCda-85">
          <mxGeometry x="40" width="20" height="20" as="geometry" />
        </mxCell>
        <mxCell id="FIXJqrWHQegm_1WHsCda-70" value="36" style="whiteSpace=wrap;html=1;aspect=fixed;fillColor=#b0e3e6;strokeColor=#0e8088;" vertex="1" parent="FIXJqrWHQegm_1WHsCda-85">
          <mxGeometry x="60" width="20" height="20" as="geometry" />
        </mxCell>
        <mxCell id="FIXJqrWHQegm_1WHsCda-71" value="37" style="whiteSpace=wrap;html=1;aspect=fixed;fillColor=#b0e3e6;strokeColor=#0e8088;" vertex="1" parent="FIXJqrWHQegm_1WHsCda-85">
          <mxGeometry y="20" width="20" height="20" as="geometry" />
        </mxCell>
        <mxCell id="FIXJqrWHQegm_1WHsCda-72" value="38" style="whiteSpace=wrap;html=1;aspect=fixed;fillColor=#b0e3e6;strokeColor=#0e8088;" vertex="1" parent="FIXJqrWHQegm_1WHsCda-85">
          <mxGeometry x="20" y="20" width="20" height="20" as="geometry" />
        </mxCell>
        <mxCell id="FIXJqrWHQegm_1WHsCda-73" value="39" style="whiteSpace=wrap;html=1;aspect=fixed;fillColor=#b0e3e6;strokeColor=#0e8088;" vertex="1" parent="FIXJqrWHQegm_1WHsCda-85">
          <mxGeometry x="40" y="20" width="20" height="20" as="geometry" />
        </mxCell>
        <mxCell id="FIXJqrWHQegm_1WHsCda-74" value="40" style="whiteSpace=wrap;html=1;aspect=fixed;fillColor=#b0e3e6;strokeColor=#0e8088;" vertex="1" parent="FIXJqrWHQegm_1WHsCda-85">
          <mxGeometry x="60" y="20" width="20" height="20" as="geometry" />
        </mxCell>
        <mxCell id="FIXJqrWHQegm_1WHsCda-75" value="41" style="whiteSpace=wrap;html=1;aspect=fixed;fillColor=#b0e3e6;strokeColor=#0e8088;" vertex="1" parent="FIXJqrWHQegm_1WHsCda-85">
          <mxGeometry y="40" width="20" height="20" as="geometry" />
        </mxCell>
        <mxCell id="FIXJqrWHQegm_1WHsCda-76" value="42" style="whiteSpace=wrap;html=1;aspect=fixed;fillColor=#b0e3e6;strokeColor=#0e8088;" vertex="1" parent="FIXJqrWHQegm_1WHsCda-85">
          <mxGeometry x="20" y="40" width="20" height="20" as="geometry" />
        </mxCell>
        <mxCell id="FIXJqrWHQegm_1WHsCda-77" value="43" style="whiteSpace=wrap;html=1;aspect=fixed;fillColor=#b0e3e6;strokeColor=#0e8088;" vertex="1" parent="FIXJqrWHQegm_1WHsCda-85">
          <mxGeometry x="40" y="40" width="20" height="20" as="geometry" />
        </mxCell>
        <mxCell id="FIXJqrWHQegm_1WHsCda-78" value="44" style="whiteSpace=wrap;html=1;aspect=fixed;fillColor=#b0e3e6;strokeColor=#0e8088;" vertex="1" parent="FIXJqrWHQegm_1WHsCda-85">
          <mxGeometry x="60" y="40" width="20" height="20" as="geometry" />
        </mxCell>
        <mxCell id="FIXJqrWHQegm_1WHsCda-79" value="45" style="whiteSpace=wrap;html=1;aspect=fixed;fillColor=#b0e3e6;strokeColor=#0e8088;" vertex="1" parent="FIXJqrWHQegm_1WHsCda-85">
          <mxGeometry y="60" width="20" height="20" as="geometry" />
        </mxCell>
        <mxCell id="FIXJqrWHQegm_1WHsCda-80" value="46" style="whiteSpace=wrap;html=1;aspect=fixed;fillColor=#b0e3e6;strokeColor=#0e8088;" vertex="1" parent="FIXJqrWHQegm_1WHsCda-85">
          <mxGeometry x="20" y="60" width="20" height="20" as="geometry" />
        </mxCell>
        <mxCell id="FIXJqrWHQegm_1WHsCda-81" value="47" style="whiteSpace=wrap;html=1;aspect=fixed;fillColor=#b0e3e6;strokeColor=#0e8088;" vertex="1" parent="FIXJqrWHQegm_1WHsCda-85">
          <mxGeometry x="40" y="60" width="20" height="20" as="geometry" />
        </mxCell>
        <mxCell id="FIXJqrWHQegm_1WHsCda-82" value="48" style="whiteSpace=wrap;html=1;aspect=fixed;fillColor=#b0e3e6;strokeColor=#0e8088;" vertex="1" parent="FIXJqrWHQegm_1WHsCda-85">
          <mxGeometry x="60" y="60" width="20" height="20" as="geometry" />
        </mxCell>
        <mxCell id="FIXJqrWHQegm_1WHsCda-107" value="" style="rounded=0;whiteSpace=wrap;html=1;fillColor=#bac8d3;strokeColor=#23445d;opacity=60;" vertex="1" parent="FIXJqrWHQegm_1WHsCda-85">
          <mxGeometry x="20" width="40" height="40" as="geometry" />
        </mxCell>
        <mxCell id="FIXJqrWHQegm_1WHsCda-84" value="" style="group" vertex="1" connectable="0" parent="1">
          <mxGeometry x="460" y="180" width="80" height="80" as="geometry" />
        </mxCell>
        <mxCell id="FIXJqrWHQegm_1WHsCda-51" value="17" style="whiteSpace=wrap;html=1;aspect=fixed;fillColor=#fad9d5;strokeColor=#ae4132;" vertex="1" parent="FIXJqrWHQegm_1WHsCda-84">
          <mxGeometry width="20" height="20" as="geometry" />
        </mxCell>
        <mxCell id="FIXJqrWHQegm_1WHsCda-52" value="18" style="whiteSpace=wrap;html=1;aspect=fixed;fillColor=#fad9d5;strokeColor=#ae4132;" vertex="1" parent="FIXJqrWHQegm_1WHsCda-84">
          <mxGeometry x="20" width="20" height="20" as="geometry" />
        </mxCell>
        <mxCell id="FIXJqrWHQegm_1WHsCda-53" value="19" style="whiteSpace=wrap;html=1;aspect=fixed;fillColor=#fad9d5;strokeColor=#ae4132;" vertex="1" parent="FIXJqrWHQegm_1WHsCda-84">
          <mxGeometry x="40" width="20" height="20" as="geometry" />
        </mxCell>
        <mxCell id="FIXJqrWHQegm_1WHsCda-54" value="20" style="whiteSpace=wrap;html=1;aspect=fixed;fillColor=#fad9d5;strokeColor=#ae4132;" vertex="1" parent="FIXJqrWHQegm_1WHsCda-84">
          <mxGeometry x="60" width="20" height="20" as="geometry" />
        </mxCell>
        <mxCell id="FIXJqrWHQegm_1WHsCda-55" value="21" style="whiteSpace=wrap;html=1;aspect=fixed;fillColor=#fad9d5;strokeColor=#ae4132;" vertex="1" parent="FIXJqrWHQegm_1WHsCda-84">
          <mxGeometry y="20" width="20" height="20" as="geometry" />
        </mxCell>
        <mxCell id="FIXJqrWHQegm_1WHsCda-56" value="22" style="whiteSpace=wrap;html=1;aspect=fixed;fillColor=#fad9d5;strokeColor=#ae4132;" vertex="1" parent="FIXJqrWHQegm_1WHsCda-84">
          <mxGeometry x="20" y="20" width="20" height="20" as="geometry" />
        </mxCell>
        <mxCell id="FIXJqrWHQegm_1WHsCda-57" value="23" style="whiteSpace=wrap;html=1;aspect=fixed;fillColor=#fad9d5;strokeColor=#ae4132;" vertex="1" parent="FIXJqrWHQegm_1WHsCda-84">
          <mxGeometry x="40" y="20" width="20" height="20" as="geometry" />
        </mxCell>
        <mxCell id="FIXJqrWHQegm_1WHsCda-58" value="24" style="whiteSpace=wrap;html=1;aspect=fixed;fillColor=#fad9d5;strokeColor=#ae4132;" vertex="1" parent="FIXJqrWHQegm_1WHsCda-84">
          <mxGeometry x="60" y="20" width="20" height="20" as="geometry" />
        </mxCell>
        <mxCell id="FIXJqrWHQegm_1WHsCda-59" value="25" style="whiteSpace=wrap;html=1;aspect=fixed;fillColor=#fad9d5;strokeColor=#ae4132;" vertex="1" parent="FIXJqrWHQegm_1WHsCda-84">
          <mxGeometry y="40" width="20" height="20" as="geometry" />
        </mxCell>
        <mxCell id="FIXJqrWHQegm_1WHsCda-60" value="26" style="whiteSpace=wrap;html=1;aspect=fixed;fillColor=#fad9d5;strokeColor=#ae4132;" vertex="1" parent="FIXJqrWHQegm_1WHsCda-84">
          <mxGeometry x="20" y="40" width="20" height="20" as="geometry" />
        </mxCell>
        <mxCell id="FIXJqrWHQegm_1WHsCda-61" value="27" style="whiteSpace=wrap;html=1;aspect=fixed;fillColor=#fad9d5;strokeColor=#ae4132;" vertex="1" parent="FIXJqrWHQegm_1WHsCda-84">
          <mxGeometry x="40" y="40" width="20" height="20" as="geometry" />
        </mxCell>
        <mxCell id="FIXJqrWHQegm_1WHsCda-62" value="28" style="whiteSpace=wrap;html=1;aspect=fixed;fillColor=#fad9d5;strokeColor=#ae4132;" vertex="1" parent="FIXJqrWHQegm_1WHsCda-84">
          <mxGeometry x="60" y="40" width="20" height="20" as="geometry" />
        </mxCell>
        <mxCell id="FIXJqrWHQegm_1WHsCda-63" value="29" style="whiteSpace=wrap;html=1;aspect=fixed;fillColor=#fad9d5;strokeColor=#ae4132;" vertex="1" parent="FIXJqrWHQegm_1WHsCda-84">
          <mxGeometry y="60" width="20" height="20" as="geometry" />
        </mxCell>
        <mxCell id="FIXJqrWHQegm_1WHsCda-64" value="30" style="whiteSpace=wrap;html=1;aspect=fixed;fillColor=#fad9d5;strokeColor=#ae4132;" vertex="1" parent="FIXJqrWHQegm_1WHsCda-84">
          <mxGeometry x="20" y="60" width="20" height="20" as="geometry" />
        </mxCell>
        <mxCell id="FIXJqrWHQegm_1WHsCda-65" value="31" style="whiteSpace=wrap;html=1;aspect=fixed;fillColor=#fad9d5;strokeColor=#ae4132;" vertex="1" parent="FIXJqrWHQegm_1WHsCda-84">
          <mxGeometry x="40" y="60" width="20" height="20" as="geometry" />
        </mxCell>
        <mxCell id="FIXJqrWHQegm_1WHsCda-66" value="32" style="whiteSpace=wrap;html=1;aspect=fixed;fillColor=#fad9d5;strokeColor=#ae4132;" vertex="1" parent="FIXJqrWHQegm_1WHsCda-84">
          <mxGeometry x="60" y="60" width="20" height="20" as="geometry" />
        </mxCell>
        <mxCell id="FIXJqrWHQegm_1WHsCda-106" value="" style="rounded=0;whiteSpace=wrap;html=1;fillColor=#bac8d3;strokeColor=#23445d;opacity=60;fontStyle=1" vertex="1" parent="FIXJqrWHQegm_1WHsCda-84">
          <mxGeometry x="20" width="40" height="40" as="geometry" />
        </mxCell>
        <mxCell id="FIXJqrWHQegm_1WHsCda-83" value="" style="group" vertex="1" connectable="0" parent="1">
          <mxGeometry x="430" y="210" width="80" height="80" as="geometry" />
        </mxCell>
        <mxCell id="FIXJqrWHQegm_1WHsCda-1" value="1" style="whiteSpace=wrap;html=1;aspect=fixed;fillColor=#fad7ac;strokeColor=#b46504;" vertex="1" parent="FIXJqrWHQegm_1WHsCda-83">
          <mxGeometry width="20" height="20" as="geometry" />
        </mxCell>
        <mxCell id="FIXJqrWHQegm_1WHsCda-18" value="2" style="whiteSpace=wrap;html=1;aspect=fixed;fillColor=#fad7ac;strokeColor=#b46504;" vertex="1" parent="FIXJqrWHQegm_1WHsCda-83">
          <mxGeometry x="20" width="20" height="20" as="geometry" />
        </mxCell>
        <mxCell id="FIXJqrWHQegm_1WHsCda-19" value="3" style="whiteSpace=wrap;html=1;aspect=fixed;fillColor=#fad7ac;strokeColor=#b46504;" vertex="1" parent="FIXJqrWHQegm_1WHsCda-83">
          <mxGeometry x="40" width="20" height="20" as="geometry" />
        </mxCell>
        <mxCell id="FIXJqrWHQegm_1WHsCda-20" value="4" style="whiteSpace=wrap;html=1;aspect=fixed;fillColor=#fad7ac;strokeColor=#b46504;" vertex="1" parent="FIXJqrWHQegm_1WHsCda-83">
          <mxGeometry x="60" width="20" height="20" as="geometry" />
        </mxCell>
        <mxCell id="FIXJqrWHQegm_1WHsCda-21" value="5" style="whiteSpace=wrap;html=1;aspect=fixed;fillColor=#fad7ac;strokeColor=#b46504;" vertex="1" parent="FIXJqrWHQegm_1WHsCda-83">
          <mxGeometry y="20" width="20" height="20" as="geometry" />
        </mxCell>
        <mxCell id="FIXJqrWHQegm_1WHsCda-22" value="6" style="whiteSpace=wrap;html=1;aspect=fixed;fillColor=#fad7ac;strokeColor=#b46504;" vertex="1" parent="FIXJqrWHQegm_1WHsCda-83">
          <mxGeometry x="20" y="20" width="20" height="20" as="geometry" />
        </mxCell>
        <mxCell id="FIXJqrWHQegm_1WHsCda-23" value="7" style="whiteSpace=wrap;html=1;aspect=fixed;fillColor=#fad7ac;strokeColor=#b46504;" vertex="1" parent="FIXJqrWHQegm_1WHsCda-83">
          <mxGeometry x="40" y="20" width="20" height="20" as="geometry" />
        </mxCell>
        <mxCell id="FIXJqrWHQegm_1WHsCda-24" value="8" style="whiteSpace=wrap;html=1;aspect=fixed;fillColor=#fad7ac;strokeColor=#b46504;" vertex="1" parent="FIXJqrWHQegm_1WHsCda-83">
          <mxGeometry x="60" y="20" width="20" height="20" as="geometry" />
        </mxCell>
        <mxCell id="FIXJqrWHQegm_1WHsCda-25" value="9" style="whiteSpace=wrap;html=1;aspect=fixed;fillColor=#fad7ac;strokeColor=#b46504;" vertex="1" parent="FIXJqrWHQegm_1WHsCda-83">
          <mxGeometry y="40" width="20" height="20" as="geometry" />
        </mxCell>
        <mxCell id="FIXJqrWHQegm_1WHsCda-26" value="10" style="whiteSpace=wrap;html=1;aspect=fixed;fillColor=#fad7ac;strokeColor=#b46504;" vertex="1" parent="FIXJqrWHQegm_1WHsCda-83">
          <mxGeometry x="20" y="40" width="20" height="20" as="geometry" />
        </mxCell>
        <mxCell id="FIXJqrWHQegm_1WHsCda-27" value="11" style="whiteSpace=wrap;html=1;aspect=fixed;fillColor=#fad7ac;strokeColor=#b46504;" vertex="1" parent="FIXJqrWHQegm_1WHsCda-83">
          <mxGeometry x="40" y="40" width="20" height="20" as="geometry" />
        </mxCell>
        <mxCell id="FIXJqrWHQegm_1WHsCda-28" value="12" style="whiteSpace=wrap;html=1;aspect=fixed;fillColor=#fad7ac;strokeColor=#b46504;" vertex="1" parent="FIXJqrWHQegm_1WHsCda-83">
          <mxGeometry x="60" y="40" width="20" height="20" as="geometry" />
        </mxCell>
        <mxCell id="FIXJqrWHQegm_1WHsCda-29" value="13" style="whiteSpace=wrap;html=1;aspect=fixed;fillColor=#fad7ac;strokeColor=#b46504;" vertex="1" parent="FIXJqrWHQegm_1WHsCda-83">
          <mxGeometry y="60" width="20" height="20" as="geometry" />
        </mxCell>
        <mxCell id="FIXJqrWHQegm_1WHsCda-30" value="14" style="whiteSpace=wrap;html=1;aspect=fixed;fillColor=#fad7ac;strokeColor=#b46504;" vertex="1" parent="FIXJqrWHQegm_1WHsCda-83">
          <mxGeometry x="20" y="60" width="20" height="20" as="geometry" />
        </mxCell>
        <mxCell id="FIXJqrWHQegm_1WHsCda-31" value="15" style="whiteSpace=wrap;html=1;aspect=fixed;fillColor=#fad7ac;strokeColor=#b46504;" vertex="1" parent="FIXJqrWHQegm_1WHsCda-83">
          <mxGeometry x="40" y="60" width="20" height="20" as="geometry" />
        </mxCell>
        <mxCell id="FIXJqrWHQegm_1WHsCda-32" value="16" style="whiteSpace=wrap;html=1;aspect=fixed;fillColor=#fad7ac;strokeColor=#b46504;" vertex="1" parent="FIXJqrWHQegm_1WHsCda-83">
          <mxGeometry x="60" y="60" width="20" height="20" as="geometry" />
        </mxCell>
        <mxCell id="FIXJqrWHQegm_1WHsCda-86" value="" style="rounded=0;whiteSpace=wrap;html=1;fillColor=#bac8d3;strokeColor=#23445d;opacity=60;" vertex="1" parent="FIXJqrWHQegm_1WHsCda-83">
          <mxGeometry x="20" width="40" height="40" as="geometry" />
        </mxCell>
        <mxCell id="FIXJqrWHQegm_1WHsCda-109" value="1" style="whiteSpace=wrap;html=1;aspect=fixed;fillColor=#fad7ac;strokeColor=#b46504;" vertex="1" parent="1">
          <mxGeometry x="590" y="130" width="20" height="20" as="geometry" />
        </mxCell>
        <mxCell id="FIXJqrWHQegm_1WHsCda-110" value="2" style="whiteSpace=wrap;html=1;aspect=fixed;fillColor=#fad7ac;strokeColor=#b46504;" vertex="1" parent="1">
          <mxGeometry x="590" y="150" width="20" height="20" as="geometry" />
        </mxCell>
        <mxCell id="FIXJqrWHQegm_1WHsCda-111" value="3" style="whiteSpace=wrap;html=1;aspect=fixed;fillColor=#fad7ac;strokeColor=#b46504;" vertex="1" parent="1">
          <mxGeometry x="590" y="170" width="20" height="20" as="geometry" />
        </mxCell>
        <mxCell id="FIXJqrWHQegm_1WHsCda-112" value="5" style="whiteSpace=wrap;html=1;aspect=fixed;fillColor=#fad7ac;strokeColor=#b46504;" vertex="1" parent="1">
          <mxGeometry x="590" y="190" width="20" height="20" as="geometry" />
        </mxCell>
        <mxCell id="FIXJqrWHQegm_1WHsCda-113" value="6" style="whiteSpace=wrap;html=1;aspect=fixed;fillColor=#fad7ac;strokeColor=#b46504;" vertex="1" parent="1">
          <mxGeometry x="590" y="210" width="20" height="20" as="geometry" />
        </mxCell>
        <mxCell id="FIXJqrWHQegm_1WHsCda-114" value="7" style="whiteSpace=wrap;html=1;aspect=fixed;fillColor=#fad7ac;strokeColor=#b46504;" vertex="1" parent="1">
          <mxGeometry x="590" y="230" width="20" height="20" as="geometry" />
        </mxCell>
        <mxCell id="FIXJqrWHQegm_1WHsCda-115" value="9" style="whiteSpace=wrap;html=1;aspect=fixed;fillColor=#fad7ac;strokeColor=#b46504;" vertex="1" parent="1">
          <mxGeometry x="590" y="250" width="20" height="20" as="geometry" />
        </mxCell>
        <mxCell id="FIXJqrWHQegm_1WHsCda-116" value="10" style="whiteSpace=wrap;html=1;aspect=fixed;fillColor=#fad7ac;strokeColor=#b46504;" vertex="1" parent="1">
          <mxGeometry x="590" y="270" width="20" height="20" as="geometry" />
        </mxCell>
        <mxCell id="FIXJqrWHQegm_1WHsCda-117" value="11" style="whiteSpace=wrap;html=1;aspect=fixed;fillColor=#fad7ac;strokeColor=#b46504;" vertex="1" parent="1">
          <mxGeometry x="590" y="290" width="20" height="20" as="geometry" />
        </mxCell>
        <mxCell id="FIXJqrWHQegm_1WHsCda-151" value="2" style="whiteSpace=wrap;html=1;aspect=fixed;fillColor=#fad7ac;strokeColor=#b46504;" vertex="1" parent="1">
          <mxGeometry x="610" y="130" width="20" height="20" as="geometry" />
        </mxCell>
        <mxCell id="FIXJqrWHQegm_1WHsCda-152" value="3" style="whiteSpace=wrap;html=1;aspect=fixed;fillColor=#fad7ac;strokeColor=#b46504;" vertex="1" parent="1">
          <mxGeometry x="610" y="150" width="20" height="20" as="geometry" />
        </mxCell>
        <mxCell id="FIXJqrWHQegm_1WHsCda-153" value="4" style="whiteSpace=wrap;html=1;aspect=fixed;fillColor=#fad7ac;strokeColor=#b46504;" vertex="1" parent="1">
          <mxGeometry x="610" y="170" width="20" height="20" as="geometry" />
        </mxCell>
        <mxCell id="FIXJqrWHQegm_1WHsCda-154" value="6" style="whiteSpace=wrap;html=1;aspect=fixed;fillColor=#fad7ac;strokeColor=#b46504;" vertex="1" parent="1">
          <mxGeometry x="610" y="190" width="20" height="20" as="geometry" />
        </mxCell>
        <mxCell id="FIXJqrWHQegm_1WHsCda-155" value="7" style="whiteSpace=wrap;html=1;aspect=fixed;fillColor=#fad7ac;strokeColor=#b46504;" vertex="1" parent="1">
          <mxGeometry x="610" y="210" width="20" height="20" as="geometry" />
        </mxCell>
        <mxCell id="FIXJqrWHQegm_1WHsCda-156" value="8" style="whiteSpace=wrap;html=1;aspect=fixed;fillColor=#fad7ac;strokeColor=#b46504;" vertex="1" parent="1">
          <mxGeometry x="610" y="230" width="20" height="20" as="geometry" />
        </mxCell>
        <mxCell id="FIXJqrWHQegm_1WHsCda-157" value="10" style="whiteSpace=wrap;html=1;aspect=fixed;fillColor=#fad7ac;strokeColor=#b46504;" vertex="1" parent="1">
          <mxGeometry x="610" y="250" width="20" height="20" as="geometry" />
        </mxCell>
        <mxCell id="FIXJqrWHQegm_1WHsCda-158" value="11" style="whiteSpace=wrap;html=1;aspect=fixed;fillColor=#fad7ac;strokeColor=#b46504;" vertex="1" parent="1">
          <mxGeometry x="610" y="270" width="20" height="20" as="geometry" />
        </mxCell>
        <mxCell id="FIXJqrWHQegm_1WHsCda-159" value="12" style="whiteSpace=wrap;html=1;aspect=fixed;fillColor=#fad7ac;strokeColor=#b46504;" vertex="1" parent="1">
          <mxGeometry x="610" y="290" width="20" height="20" as="geometry" />
        </mxCell>
        <mxCell id="FIXJqrWHQegm_1WHsCda-163" value="5" style="whiteSpace=wrap;html=1;aspect=fixed;fillColor=#fad7ac;strokeColor=#b46504;" vertex="1" parent="1">
          <mxGeometry x="630" y="130" width="20" height="20" as="geometry" />
        </mxCell>
        <mxCell id="FIXJqrWHQegm_1WHsCda-164" value="6" style="whiteSpace=wrap;html=1;aspect=fixed;fillColor=#fad7ac;strokeColor=#b46504;" vertex="1" parent="1">
          <mxGeometry x="630" y="150" width="20" height="20" as="geometry" />
        </mxCell>
        <mxCell id="FIXJqrWHQegm_1WHsCda-165" value="7" style="whiteSpace=wrap;html=1;aspect=fixed;fillColor=#fad7ac;strokeColor=#b46504;" vertex="1" parent="1">
          <mxGeometry x="630" y="170" width="20" height="20" as="geometry" />
        </mxCell>
        <mxCell id="FIXJqrWHQegm_1WHsCda-166" value="9" style="whiteSpace=wrap;html=1;aspect=fixed;fillColor=#fad7ac;strokeColor=#b46504;" vertex="1" parent="1">
          <mxGeometry x="630" y="190" width="20" height="20" as="geometry" />
        </mxCell>
        <mxCell id="FIXJqrWHQegm_1WHsCda-167" value="10" style="whiteSpace=wrap;html=1;aspect=fixed;fillColor=#fad7ac;strokeColor=#b46504;" vertex="1" parent="1">
          <mxGeometry x="630" y="210" width="20" height="20" as="geometry" />
        </mxCell>
        <mxCell id="FIXJqrWHQegm_1WHsCda-168" value="11" style="whiteSpace=wrap;html=1;aspect=fixed;fillColor=#fad7ac;strokeColor=#b46504;" vertex="1" parent="1">
          <mxGeometry x="630" y="230" width="20" height="20" as="geometry" />
        </mxCell>
        <mxCell id="FIXJqrWHQegm_1WHsCda-169" value="13" style="whiteSpace=wrap;html=1;aspect=fixed;fillColor=#fad7ac;strokeColor=#b46504;" vertex="1" parent="1">
          <mxGeometry x="630" y="250" width="20" height="20" as="geometry" />
        </mxCell>
        <mxCell id="FIXJqrWHQegm_1WHsCda-170" value="14" style="whiteSpace=wrap;html=1;aspect=fixed;fillColor=#fad7ac;strokeColor=#b46504;" vertex="1" parent="1">
          <mxGeometry x="630" y="270" width="20" height="20" as="geometry" />
        </mxCell>
        <mxCell id="FIXJqrWHQegm_1WHsCda-171" value="15" style="whiteSpace=wrap;html=1;aspect=fixed;fillColor=#fad7ac;strokeColor=#b46504;" vertex="1" parent="1">
          <mxGeometry x="630" y="290" width="20" height="20" as="geometry" />
        </mxCell>
        <mxCell id="FIXJqrWHQegm_1WHsCda-175" value="6" style="whiteSpace=wrap;html=1;aspect=fixed;fillColor=#fad7ac;strokeColor=#b46504;" vertex="1" parent="1">
          <mxGeometry x="650" y="130" width="20" height="20" as="geometry" />
        </mxCell>
        <mxCell id="FIXJqrWHQegm_1WHsCda-176" value="7" style="whiteSpace=wrap;html=1;aspect=fixed;fillColor=#fad7ac;strokeColor=#b46504;" vertex="1" parent="1">
          <mxGeometry x="650" y="150" width="20" height="20" as="geometry" />
        </mxCell>
        <mxCell id="FIXJqrWHQegm_1WHsCda-177" value="8" style="whiteSpace=wrap;html=1;aspect=fixed;fillColor=#fad7ac;strokeColor=#b46504;" vertex="1" parent="1">
          <mxGeometry x="650" y="170" width="20" height="20" as="geometry" />
        </mxCell>
        <mxCell id="FIXJqrWHQegm_1WHsCda-178" value="10" style="whiteSpace=wrap;html=1;aspect=fixed;fillColor=#fad7ac;strokeColor=#b46504;" vertex="1" parent="1">
          <mxGeometry x="650" y="190" width="20" height="20" as="geometry" />
        </mxCell>
        <mxCell id="FIXJqrWHQegm_1WHsCda-179" value="11" style="whiteSpace=wrap;html=1;aspect=fixed;fillColor=#fad7ac;strokeColor=#b46504;" vertex="1" parent="1">
          <mxGeometry x="650" y="210" width="20" height="20" as="geometry" />
        </mxCell>
        <mxCell id="FIXJqrWHQegm_1WHsCda-180" value="12" style="whiteSpace=wrap;html=1;aspect=fixed;fillColor=#fad7ac;strokeColor=#b46504;" vertex="1" parent="1">
          <mxGeometry x="650" y="230" width="20" height="20" as="geometry" />
        </mxCell>
        <mxCell id="FIXJqrWHQegm_1WHsCda-181" value="14" style="whiteSpace=wrap;html=1;aspect=fixed;fillColor=#fad7ac;strokeColor=#b46504;" vertex="1" parent="1">
          <mxGeometry x="650" y="250" width="20" height="20" as="geometry" />
        </mxCell>
        <mxCell id="FIXJqrWHQegm_1WHsCda-182" value="15" style="whiteSpace=wrap;html=1;aspect=fixed;fillColor=#fad7ac;strokeColor=#b46504;" vertex="1" parent="1">
          <mxGeometry x="650" y="270" width="20" height="20" as="geometry" />
        </mxCell>
        <mxCell id="FIXJqrWHQegm_1WHsCda-183" value="16" style="whiteSpace=wrap;html=1;aspect=fixed;fillColor=#fad7ac;strokeColor=#b46504;" vertex="1" parent="1">
          <mxGeometry x="650" y="290" width="20" height="20" as="geometry" />
        </mxCell>
        <mxCell id="FIXJqrWHQegm_1WHsCda-187" value="17" style="whiteSpace=wrap;html=1;aspect=fixed;fillColor=#fad9d5;strokeColor=#ae4132;" vertex="1" parent="1">
          <mxGeometry x="670" y="130" width="20" height="20" as="geometry" />
        </mxCell>
        <mxCell id="FIXJqrWHQegm_1WHsCda-188" value="18" style="whiteSpace=wrap;html=1;aspect=fixed;fillColor=#fad9d5;strokeColor=#ae4132;" vertex="1" parent="1">
          <mxGeometry x="670" y="150" width="20" height="20" as="geometry" />
        </mxCell>
        <mxCell id="FIXJqrWHQegm_1WHsCda-189" value="19" style="whiteSpace=wrap;html=1;aspect=fixed;fillColor=#fad9d5;strokeColor=#ae4132;" vertex="1" parent="1">
          <mxGeometry x="670" y="170" width="20" height="20" as="geometry" />
        </mxCell>
        <mxCell id="FIXJqrWHQegm_1WHsCda-190" value="21" style="whiteSpace=wrap;html=1;aspect=fixed;fillColor=#fad9d5;strokeColor=#ae4132;" vertex="1" parent="1">
          <mxGeometry x="670" y="190" width="20" height="20" as="geometry" />
        </mxCell>
        <mxCell id="FIXJqrWHQegm_1WHsCda-191" value="22" style="whiteSpace=wrap;html=1;aspect=fixed;fillColor=#fad9d5;strokeColor=#ae4132;" vertex="1" parent="1">
          <mxGeometry x="670" y="210" width="20" height="20" as="geometry" />
        </mxCell>
        <mxCell id="FIXJqrWHQegm_1WHsCda-192" value="23" style="whiteSpace=wrap;html=1;aspect=fixed;fillColor=#fad9d5;strokeColor=#ae4132;" vertex="1" parent="1">
          <mxGeometry x="670" y="230" width="20" height="20" as="geometry" />
        </mxCell>
        <mxCell id="FIXJqrWHQegm_1WHsCda-193" value="25" style="whiteSpace=wrap;html=1;aspect=fixed;fillColor=#fad9d5;strokeColor=#ae4132;" vertex="1" parent="1">
          <mxGeometry x="670" y="250" width="20" height="20" as="geometry" />
        </mxCell>
        <mxCell id="FIXJqrWHQegm_1WHsCda-194" value="26" style="whiteSpace=wrap;html=1;aspect=fixed;fillColor=#fad9d5;strokeColor=#ae4132;" vertex="1" parent="1">
          <mxGeometry x="670" y="270" width="20" height="20" as="geometry" />
        </mxCell>
        <mxCell id="FIXJqrWHQegm_1WHsCda-195" value="27" style="whiteSpace=wrap;html=1;aspect=fixed;fillColor=#fad9d5;strokeColor=#ae4132;" vertex="1" parent="1">
          <mxGeometry x="670" y="290" width="20" height="20" as="geometry" />
        </mxCell>
        <mxCell id="FIXJqrWHQegm_1WHsCda-199" value="18" style="whiteSpace=wrap;html=1;aspect=fixed;fillColor=#fad9d5;strokeColor=#ae4132;" vertex="1" parent="1">
          <mxGeometry x="690" y="130" width="20" height="20" as="geometry" />
        </mxCell>
        <mxCell id="FIXJqrWHQegm_1WHsCda-200" value="19" style="whiteSpace=wrap;html=1;aspect=fixed;fillColor=#fad9d5;strokeColor=#ae4132;" vertex="1" parent="1">
          <mxGeometry x="690" y="150" width="20" height="20" as="geometry" />
        </mxCell>
        <mxCell id="FIXJqrWHQegm_1WHsCda-201" value="20" style="whiteSpace=wrap;html=1;aspect=fixed;fillColor=#fad9d5;strokeColor=#ae4132;" vertex="1" parent="1">
          <mxGeometry x="690" y="170" width="20" height="20" as="geometry" />
        </mxCell>
        <mxCell id="FIXJqrWHQegm_1WHsCda-202" value="22" style="whiteSpace=wrap;html=1;aspect=fixed;fillColor=#fad9d5;strokeColor=#ae4132;" vertex="1" parent="1">
          <mxGeometry x="690" y="190" width="20" height="20" as="geometry" />
        </mxCell>
        <mxCell id="FIXJqrWHQegm_1WHsCda-203" value="23" style="whiteSpace=wrap;html=1;aspect=fixed;fillColor=#fad9d5;strokeColor=#ae4132;" vertex="1" parent="1">
          <mxGeometry x="690" y="210" width="20" height="20" as="geometry" />
        </mxCell>
        <mxCell id="FIXJqrWHQegm_1WHsCda-204" value="24" style="whiteSpace=wrap;html=1;aspect=fixed;fillColor=#fad9d5;strokeColor=#ae4132;" vertex="1" parent="1">
          <mxGeometry x="690" y="230" width="20" height="20" as="geometry" />
        </mxCell>
        <mxCell id="FIXJqrWHQegm_1WHsCda-205" value="26" style="whiteSpace=wrap;html=1;aspect=fixed;fillColor=#fad9d5;strokeColor=#ae4132;" vertex="1" parent="1">
          <mxGeometry x="690" y="250" width="20" height="20" as="geometry" />
        </mxCell>
        <mxCell id="FIXJqrWHQegm_1WHsCda-206" value="27" style="whiteSpace=wrap;html=1;aspect=fixed;fillColor=#fad9d5;strokeColor=#ae4132;" vertex="1" parent="1">
          <mxGeometry x="690" y="270" width="20" height="20" as="geometry" />
        </mxCell>
        <mxCell id="FIXJqrWHQegm_1WHsCda-207" value="28" style="whiteSpace=wrap;html=1;aspect=fixed;fillColor=#fad9d5;strokeColor=#ae4132;" vertex="1" parent="1">
          <mxGeometry x="690" y="290" width="20" height="20" as="geometry" />
        </mxCell>
        <mxCell id="FIXJqrWHQegm_1WHsCda-211" value="21" style="whiteSpace=wrap;html=1;aspect=fixed;fillColor=#fad9d5;strokeColor=#ae4132;" vertex="1" parent="1">
          <mxGeometry x="710" y="130" width="20" height="20" as="geometry" />
        </mxCell>
        <mxCell id="FIXJqrWHQegm_1WHsCda-212" value="22" style="whiteSpace=wrap;html=1;aspect=fixed;fillColor=#fad9d5;strokeColor=#ae4132;" vertex="1" parent="1">
          <mxGeometry x="710" y="150" width="20" height="20" as="geometry" />
        </mxCell>
        <mxCell id="FIXJqrWHQegm_1WHsCda-213" value="23" style="whiteSpace=wrap;html=1;aspect=fixed;fillColor=#fad9d5;strokeColor=#ae4132;" vertex="1" parent="1">
          <mxGeometry x="710" y="170" width="20" height="20" as="geometry" />
        </mxCell>
        <mxCell id="FIXJqrWHQegm_1WHsCda-214" value="25" style="whiteSpace=wrap;html=1;aspect=fixed;fillColor=#fad9d5;strokeColor=#ae4132;" vertex="1" parent="1">
          <mxGeometry x="710" y="190" width="20" height="20" as="geometry" />
        </mxCell>
        <mxCell id="FIXJqrWHQegm_1WHsCda-215" value="26" style="whiteSpace=wrap;html=1;aspect=fixed;fillColor=#fad9d5;strokeColor=#ae4132;" vertex="1" parent="1">
          <mxGeometry x="710" y="210" width="20" height="20" as="geometry" />
        </mxCell>
        <mxCell id="FIXJqrWHQegm_1WHsCda-216" value="27" style="whiteSpace=wrap;html=1;aspect=fixed;fillColor=#fad9d5;strokeColor=#ae4132;" vertex="1" parent="1">
          <mxGeometry x="710" y="230" width="20" height="20" as="geometry" />
        </mxCell>
        <mxCell id="FIXJqrWHQegm_1WHsCda-217" value="29" style="whiteSpace=wrap;html=1;aspect=fixed;fillColor=#fad9d5;strokeColor=#ae4132;" vertex="1" parent="1">
          <mxGeometry x="710" y="250" width="20" height="20" as="geometry" />
        </mxCell>
        <mxCell id="FIXJqrWHQegm_1WHsCda-218" value="30" style="whiteSpace=wrap;html=1;aspect=fixed;fillColor=#fad9d5;strokeColor=#ae4132;" vertex="1" parent="1">
          <mxGeometry x="710" y="270" width="20" height="20" as="geometry" />
        </mxCell>
        <mxCell id="FIXJqrWHQegm_1WHsCda-219" value="31" style="whiteSpace=wrap;html=1;aspect=fixed;fillColor=#fad9d5;strokeColor=#ae4132;" vertex="1" parent="1">
          <mxGeometry x="710" y="290" width="20" height="20" as="geometry" />
        </mxCell>
        <mxCell id="FIXJqrWHQegm_1WHsCda-223" value="22" style="whiteSpace=wrap;html=1;aspect=fixed;fillColor=#fad9d5;strokeColor=#ae4132;" vertex="1" parent="1">
          <mxGeometry x="730" y="130" width="20" height="20" as="geometry" />
        </mxCell>
        <mxCell id="FIXJqrWHQegm_1WHsCda-224" value="23" style="whiteSpace=wrap;html=1;aspect=fixed;fillColor=#fad9d5;strokeColor=#ae4132;" vertex="1" parent="1">
          <mxGeometry x="730" y="150" width="20" height="20" as="geometry" />
        </mxCell>
        <mxCell id="FIXJqrWHQegm_1WHsCda-225" value="24" style="whiteSpace=wrap;html=1;aspect=fixed;fillColor=#fad9d5;strokeColor=#ae4132;" vertex="1" parent="1">
          <mxGeometry x="730" y="170" width="20" height="20" as="geometry" />
        </mxCell>
        <mxCell id="FIXJqrWHQegm_1WHsCda-226" value="26" style="whiteSpace=wrap;html=1;aspect=fixed;fillColor=#fad9d5;strokeColor=#ae4132;" vertex="1" parent="1">
          <mxGeometry x="730" y="190" width="20" height="20" as="geometry" />
        </mxCell>
        <mxCell id="FIXJqrWHQegm_1WHsCda-227" value="27" style="whiteSpace=wrap;html=1;aspect=fixed;fillColor=#fad9d5;strokeColor=#ae4132;" vertex="1" parent="1">
          <mxGeometry x="730" y="210" width="20" height="20" as="geometry" />
        </mxCell>
        <mxCell id="FIXJqrWHQegm_1WHsCda-228" value="28" style="whiteSpace=wrap;html=1;aspect=fixed;fillColor=#fad9d5;strokeColor=#ae4132;" vertex="1" parent="1">
          <mxGeometry x="730" y="230" width="20" height="20" as="geometry" />
        </mxCell>
        <mxCell id="FIXJqrWHQegm_1WHsCda-229" value="30" style="whiteSpace=wrap;html=1;aspect=fixed;fillColor=#fad9d5;strokeColor=#ae4132;" vertex="1" parent="1">
          <mxGeometry x="730" y="250" width="20" height="20" as="geometry" />
        </mxCell>
        <mxCell id="FIXJqrWHQegm_1WHsCda-230" value="31" style="whiteSpace=wrap;html=1;aspect=fixed;fillColor=#fad9d5;strokeColor=#ae4132;" vertex="1" parent="1">
          <mxGeometry x="730" y="270" width="20" height="20" as="geometry" />
        </mxCell>
        <mxCell id="FIXJqrWHQegm_1WHsCda-231" value="32" style="whiteSpace=wrap;html=1;aspect=fixed;fillColor=#fad9d5;strokeColor=#ae4132;" vertex="1" parent="1">
          <mxGeometry x="730" y="290" width="20" height="20" as="geometry" />
        </mxCell>
        <mxCell id="FIXJqrWHQegm_1WHsCda-235" value="33" style="whiteSpace=wrap;html=1;aspect=fixed;fillColor=#b0e3e6;strokeColor=#0e8088;" vertex="1" parent="1">
          <mxGeometry x="750" y="130" width="20" height="20" as="geometry" />
        </mxCell>
        <mxCell id="FIXJqrWHQegm_1WHsCda-236" value="34" style="whiteSpace=wrap;html=1;aspect=fixed;fillColor=#b0e3e6;strokeColor=#0e8088;" vertex="1" parent="1">
          <mxGeometry x="750" y="150" width="20" height="20" as="geometry" />
        </mxCell>
        <mxCell id="FIXJqrWHQegm_1WHsCda-237" value="35" style="whiteSpace=wrap;html=1;aspect=fixed;fillColor=#b0e3e6;strokeColor=#0e8088;" vertex="1" parent="1">
          <mxGeometry x="750" y="170" width="20" height="20" as="geometry" />
        </mxCell>
        <mxCell id="FIXJqrWHQegm_1WHsCda-238" value="37" style="whiteSpace=wrap;html=1;aspect=fixed;fillColor=#b0e3e6;strokeColor=#0e8088;" vertex="1" parent="1">
          <mxGeometry x="750" y="190" width="20" height="20" as="geometry" />
        </mxCell>
        <mxCell id="FIXJqrWHQegm_1WHsCda-239" value="38" style="whiteSpace=wrap;html=1;aspect=fixed;fillColor=#b0e3e6;strokeColor=#0e8088;" vertex="1" parent="1">
          <mxGeometry x="750" y="210" width="20" height="20" as="geometry" />
        </mxCell>
        <mxCell id="FIXJqrWHQegm_1WHsCda-240" value="39" style="whiteSpace=wrap;html=1;aspect=fixed;fillColor=#b0e3e6;strokeColor=#0e8088;" vertex="1" parent="1">
          <mxGeometry x="750" y="230" width="20" height="20" as="geometry" />
        </mxCell>
        <mxCell id="FIXJqrWHQegm_1WHsCda-241" value="41" style="whiteSpace=wrap;html=1;aspect=fixed;fillColor=#b0e3e6;strokeColor=#0e8088;" vertex="1" parent="1">
          <mxGeometry x="750" y="250" width="20" height="20" as="geometry" />
        </mxCell>
        <mxCell id="FIXJqrWHQegm_1WHsCda-242" value="42" style="whiteSpace=wrap;html=1;aspect=fixed;fillColor=#b0e3e6;strokeColor=#0e8088;" vertex="1" parent="1">
          <mxGeometry x="750" y="270" width="20" height="20" as="geometry" />
        </mxCell>
        <mxCell id="FIXJqrWHQegm_1WHsCda-243" value="43" style="whiteSpace=wrap;html=1;aspect=fixed;fillColor=#b0e3e6;strokeColor=#0e8088;" vertex="1" parent="1">
          <mxGeometry x="750" y="290" width="20" height="20" as="geometry" />
        </mxCell>
        <mxCell id="FIXJqrWHQegm_1WHsCda-247" value="34" style="whiteSpace=wrap;html=1;aspect=fixed;fillColor=#b0e3e6;strokeColor=#0e8088;" vertex="1" parent="1">
          <mxGeometry x="770" y="130" width="20" height="20" as="geometry" />
        </mxCell>
        <mxCell id="FIXJqrWHQegm_1WHsCda-248" value="35" style="whiteSpace=wrap;html=1;aspect=fixed;fillColor=#b0e3e6;strokeColor=#0e8088;" vertex="1" parent="1">
          <mxGeometry x="770" y="150" width="20" height="20" as="geometry" />
        </mxCell>
        <mxCell id="FIXJqrWHQegm_1WHsCda-249" value="36" style="whiteSpace=wrap;html=1;aspect=fixed;fillColor=#b0e3e6;strokeColor=#0e8088;" vertex="1" parent="1">
          <mxGeometry x="770" y="170" width="20" height="20" as="geometry" />
        </mxCell>
        <mxCell id="FIXJqrWHQegm_1WHsCda-250" value="38" style="whiteSpace=wrap;html=1;aspect=fixed;fillColor=#b0e3e6;strokeColor=#0e8088;" vertex="1" parent="1">
          <mxGeometry x="770" y="190" width="20" height="20" as="geometry" />
        </mxCell>
        <mxCell id="FIXJqrWHQegm_1WHsCda-251" value="39" style="whiteSpace=wrap;html=1;aspect=fixed;fillColor=#b0e3e6;strokeColor=#0e8088;" vertex="1" parent="1">
          <mxGeometry x="770" y="210" width="20" height="20" as="geometry" />
        </mxCell>
        <mxCell id="FIXJqrWHQegm_1WHsCda-252" value="40" style="whiteSpace=wrap;html=1;aspect=fixed;fillColor=#b0e3e6;strokeColor=#0e8088;" vertex="1" parent="1">
          <mxGeometry x="770" y="230" width="20" height="20" as="geometry" />
        </mxCell>
        <mxCell id="FIXJqrWHQegm_1WHsCda-253" value="42" style="whiteSpace=wrap;html=1;aspect=fixed;fillColor=#b0e3e6;strokeColor=#0e8088;" vertex="1" parent="1">
          <mxGeometry x="770" y="250" width="20" height="20" as="geometry" />
        </mxCell>
        <mxCell id="FIXJqrWHQegm_1WHsCda-254" value="43" style="whiteSpace=wrap;html=1;aspect=fixed;fillColor=#b0e3e6;strokeColor=#0e8088;" vertex="1" parent="1">
          <mxGeometry x="770" y="270" width="20" height="20" as="geometry" />
        </mxCell>
        <mxCell id="FIXJqrWHQegm_1WHsCda-255" value="44" style="whiteSpace=wrap;html=1;aspect=fixed;fillColor=#b0e3e6;strokeColor=#0e8088;" vertex="1" parent="1">
          <mxGeometry x="770" y="290" width="20" height="20" as="geometry" />
        </mxCell>
        <mxCell id="FIXJqrWHQegm_1WHsCda-256" value="37" style="whiteSpace=wrap;html=1;aspect=fixed;fillColor=#b0e3e6;strokeColor=#0e8088;" vertex="1" parent="1">
          <mxGeometry x="790" y="130" width="20" height="20" as="geometry" />
        </mxCell>
        <mxCell id="FIXJqrWHQegm_1WHsCda-257" value="38" style="whiteSpace=wrap;html=1;aspect=fixed;fillColor=#b0e3e6;strokeColor=#0e8088;" vertex="1" parent="1">
          <mxGeometry x="790" y="150" width="20" height="20" as="geometry" />
        </mxCell>
        <mxCell id="FIXJqrWHQegm_1WHsCda-258" value="39" style="whiteSpace=wrap;html=1;aspect=fixed;fillColor=#b0e3e6;strokeColor=#0e8088;" vertex="1" parent="1">
          <mxGeometry x="790" y="170" width="20" height="20" as="geometry" />
        </mxCell>
        <mxCell id="FIXJqrWHQegm_1WHsCda-259" value="41" style="whiteSpace=wrap;html=1;aspect=fixed;fillColor=#b0e3e6;strokeColor=#0e8088;" vertex="1" parent="1">
          <mxGeometry x="790" y="190" width="20" height="20" as="geometry" />
        </mxCell>
        <mxCell id="FIXJqrWHQegm_1WHsCda-260" value="42" style="whiteSpace=wrap;html=1;aspect=fixed;fillColor=#b0e3e6;strokeColor=#0e8088;" vertex="1" parent="1">
          <mxGeometry x="790" y="210" width="20" height="20" as="geometry" />
        </mxCell>
        <mxCell id="FIXJqrWHQegm_1WHsCda-261" value="43" style="whiteSpace=wrap;html=1;aspect=fixed;fillColor=#b0e3e6;strokeColor=#0e8088;" vertex="1" parent="1">
          <mxGeometry x="790" y="230" width="20" height="20" as="geometry" />
        </mxCell>
        <mxCell id="FIXJqrWHQegm_1WHsCda-262" value="45" style="whiteSpace=wrap;html=1;aspect=fixed;fillColor=#b0e3e6;strokeColor=#0e8088;" vertex="1" parent="1">
          <mxGeometry x="790" y="250" width="20" height="20" as="geometry" />
        </mxCell>
        <mxCell id="FIXJqrWHQegm_1WHsCda-263" value="46" style="whiteSpace=wrap;html=1;aspect=fixed;fillColor=#b0e3e6;strokeColor=#0e8088;" vertex="1" parent="1">
          <mxGeometry x="790" y="270" width="20" height="20" as="geometry" />
        </mxCell>
        <mxCell id="FIXJqrWHQegm_1WHsCda-264" value="47" style="whiteSpace=wrap;html=1;aspect=fixed;fillColor=#b0e3e6;strokeColor=#0e8088;" vertex="1" parent="1">
          <mxGeometry x="790" y="290" width="20" height="20" as="geometry" />
        </mxCell>
        <mxCell id="FIXJqrWHQegm_1WHsCda-265" value="38" style="whiteSpace=wrap;html=1;aspect=fixed;fillColor=#b0e3e6;strokeColor=#0e8088;" vertex="1" parent="1">
          <mxGeometry x="810" y="130" width="20" height="20" as="geometry" />
        </mxCell>
        <mxCell id="FIXJqrWHQegm_1WHsCda-266" value="39" style="whiteSpace=wrap;html=1;aspect=fixed;fillColor=#b0e3e6;strokeColor=#0e8088;" vertex="1" parent="1">
          <mxGeometry x="810" y="150" width="20" height="20" as="geometry" />
        </mxCell>
        <mxCell id="FIXJqrWHQegm_1WHsCda-267" value="40" style="whiteSpace=wrap;html=1;aspect=fixed;fillColor=#b0e3e6;strokeColor=#0e8088;" vertex="1" parent="1">
          <mxGeometry x="810" y="170" width="20" height="20" as="geometry" />
        </mxCell>
        <mxCell id="FIXJqrWHQegm_1WHsCda-268" value="42" style="whiteSpace=wrap;html=1;aspect=fixed;fillColor=#b0e3e6;strokeColor=#0e8088;" vertex="1" parent="1">
          <mxGeometry x="810" y="190" width="20" height="20" as="geometry" />
        </mxCell>
        <mxCell id="FIXJqrWHQegm_1WHsCda-269" value="43" style="whiteSpace=wrap;html=1;aspect=fixed;fillColor=#b0e3e6;strokeColor=#0e8088;" vertex="1" parent="1">
          <mxGeometry x="810" y="210" width="20" height="20" as="geometry" />
        </mxCell>
        <mxCell id="FIXJqrWHQegm_1WHsCda-270" value="44" style="whiteSpace=wrap;html=1;aspect=fixed;fillColor=#b0e3e6;strokeColor=#0e8088;" vertex="1" parent="1">
          <mxGeometry x="810" y="230" width="20" height="20" as="geometry" />
        </mxCell>
        <mxCell id="FIXJqrWHQegm_1WHsCda-271" value="46" style="whiteSpace=wrap;html=1;aspect=fixed;fillColor=#b0e3e6;strokeColor=#0e8088;" vertex="1" parent="1">
          <mxGeometry x="810" y="250" width="20" height="20" as="geometry" />
        </mxCell>
        <mxCell id="FIXJqrWHQegm_1WHsCda-272" value="47" style="whiteSpace=wrap;html=1;aspect=fixed;fillColor=#b0e3e6;strokeColor=#0e8088;" vertex="1" parent="1">
          <mxGeometry x="810" y="270" width="20" height="20" as="geometry" />
        </mxCell>
        <mxCell id="FIXJqrWHQegm_1WHsCda-273" value="48" style="whiteSpace=wrap;html=1;aspect=fixed;fillColor=#b0e3e6;strokeColor=#0e8088;" vertex="1" parent="1">
          <mxGeometry x="810" y="290" width="20" height="20" as="geometry" />
        </mxCell>
        <mxCell id="FIXJqrWHQegm_1WHsCda-276" value="" style="endArrow=classic;html=1;rounded=0;" edge="1" parent="1">
          <mxGeometry width="50" height="50" relative="1" as="geometry">
            <mxPoint x="525" y="280" as="sourcePoint" />
            <mxPoint x="570" y="280" as="targetPoint" />
          </mxGeometry>
        </mxCell>
      </root>
    </mxGraphModel>
  </diagram>
</mxfile>
